<?xml version="1.0" encoding="UTF-8"?><svg id="Livello_2" xmlns="http://www.w3.org/2000/svg" viewBox="0 0 914.57 486.87"><defs><style>.cls-1{stroke:#3c3c3b;stroke-width:.76px;}.cls-2{font-family:Ogg-Roman, Ogg;font-size:115.78px;}</style></defs><line class="cls-1" x1="500.51" y1="486.87" x2="500.51" y2="218.79"/><g><path d="M125.83,209.93c5.32,2.99,16.43,2.99,23.35-.39,44.41-25.67,88.12-53.43,138.08-67.3,14.57,11.1,36.77,11.8,53.42,4.86v-.7c-11.91,1.36-33.28,3.55-45.77-6.86,30.21-11.78,65.07-8.55,70.06-22.29,12.77-40.13-54.95-52.33-43.02-85.34,2.78-6.94,8.06-10.07,15.26-11.1,66.61-4.86,130.44,2.78,196.36,5.55v-1.39c-63.84-7.63-128.82-11.59-193.35-13.67L322.64,0l-.69,4.16c17.94,10.47-.82,9.47-6.25,20.82-6.02,14.63-1.79,25.51,10.41,38.16,12.49,13.87,32.61,19.42,36.08,38.85,.44,11.57-7.11,17.22-18.98,19.78-15.44,2.66-36.19,4.32-58.74,10.75-5.76-5.43-9.99-15.3-12.49-23.59-6.94-31.22,27.06-52.73,11.8-81.18-4.74-7.23-15.86-7.9-27.06-6.94C163.74,31.92,65.65,62.6,0,106.16,70.08,70.77,144.32,43.02,225.5,34c20.01-1.61,40.77-7.83,50.65,1.05,5.19,6.62-2.07,23.92-7.63,32.25-13.18,22.9-5.24,49.92,9.72,68.69,0,0-42.6,15.75-66.25,29.86-20.67,11.87-41.09,24.98-66.73,39.84-8.22,4.23-21.05,3.15-24.52-5.87-.7,4.86,1.63,7.33,5.1,10.1"/><path d="M359.41,29.83c-3.52,.14-5.12,3.89-4.86,6.94,.47,2.78,3.47,6.25,6.25,5.55,4.12-1.38,4.64-4.83,3.94-8.3-.73-2.42-3.25-4.19-5.33-4.19"/><path d="M375.74,35.38c-2.78,4.16,.45,4.17,3.1,4.17,53.76-2.6,119.25-2.26,139.91-.27,0,0-72.46,32.43-100.92,36.19-19.51,1.23-39.68,2.24-48.7-15.8,1.39,20.12,26.05,25.35,34.92,46.67,15.45,39.18-11.87,78.27-46.03,104.58,.62,0,.96,.33,1.62,0,36.52-23.65,60.5-61.91,51.11-106.15-1.81-6.98-7.71-10.87-7.63-20.82,6.24,0,11.13-.26,22.25-2.26,21.09-4.9,45.74-23.99,110.27-44.23-31.22-3.47-140.48-4.86-159.91-2.08"/><path d="M23.33,137.97l.91,.91c43.41-21.99,108.9-49.63,176.96-58.51,0-3.23-2.06-6.82-2.06-6.82-65.09,10.14-119.62,30.47-175.8,64.43"/><path d="M46.49,166.52c15.6-7.89,65.89-41.75,158.89-58.98,.05-1.87-.29-3.53-.7-5.55-52.16,8.27-112.39,29.66-158.7,63.53-2.96,2.4,0,.67,.5,1"/><path d="M15.66,219.77v1.4c7.07,3.15,6.31,5.94,6.65,18.34v42.36c-.35,12.4-.68,15.5-8.71,17.93v1.81h27.57v-1.81c-5.83-1.19-8.7-5.05-8.7-17.93v-19.28s.26-1.37,1.77-1.37h12.48c9.7,0,12.34,.55,13.72,6.38h.77v-19.55h-.77c-1.58,7.07-5.67,7.34-15.38,7.34h-10.69c-2.12,0-1.91-1.43-1.91-1.43v-24.22s.41-4.03,2.87-4.03c3.5,0,16.33-.15,16.33-.15,3.09,0,6.93,.68,10.2,10.69h1.73l-3.02-16.48H15.66Z"/><path d="M105.5,295.87s-13.71-.15-17.2-.15-3.65-5.42-3.65-5.42l-.03-27.71s.26-1.37,1.77-1.37h8.06c9.7,0,12.35,.55,13.72,6.38h.77v-19.55h-.77c-1.57,7.07-5.67,7.34-15.38,7.34h-6.27c-2.12,0-1.91-1.43-1.91-1.43v-24.22s.41-4.03,2.87-4.03c3.5,0,17.2-.15,17.2-.15,3.08,0,6.93,.69,10.2,10.7h1.73l-3.02-16.48h-44.92v1.39c7.07,3.16,6.3,5.95,6.65,18.34v42.36c-.35,12.39-.68,15.5-8.71,17.93v1.81l47.8,.06,3.02-16.48h-1.73c-3.27,10.01-7.12,10.7-10.2,10.7"/><path d="M332.43,258.79c-2.64,0-4.35-.1-4.35-.1h-3.36c-2.12,0-3.45-3.25-3.45-3.25v-28.51s.4-2.07,2.87-2.07c1.1,0,4.7-.01,6.97-.03,0,0,15.42-1.07,15.42,15.63,0,9.74-7.19,18.33-14.1,18.33m-72.14,5.79l10.56-30.07,11.68,30.07h-22.24Zm-46.36-5.79c-2.64,0-4.35-.1-4.35-.1h-3.36c-2.12,0-3.45-3.25-3.45-3.25v-28.51s.41-2.07,2.87-2.07c1.1,0,4.7-.01,6.97-.03,0,0,15.42-1.07,15.42,15.63,0,9.74-7.18,18.33-14.1,18.33m-63.21,0c-2.64,0-4.34-.1-4.34-.1h-3.37c-2.12,0-3.45-3.25-3.45-3.25v-28.51s.41-2.07,2.87-2.07c1.1,0,4.7-.01,6.97-.03,0,0,15.42-1.07,15.42,15.63,0,9.74-7.19,18.33-14.1,18.33m264.38,68.41c-5.4-.41-11.85-1.87-22.56-7.69-6.49-3.53-12.93-10.1-19.46-17.91h22.58v-1.81c-8.03-2.43-8.36-5.54-8.71-17.93v-42.36c.35-12.39-.41-15.18,6.65-18.34v-1.39h-23.43v1.39c7.07,3.16,6.31,5.95,6.65,18.34v42.36c-.3,10.83-.6,14.57-6.02,16.96-3.49-4.3-7.02-8.89-10.6-13.5-17.36-22.34-18.06-22.52-17.89-24.01,.08-.7,1.8-1.85,4.05-3.13,2.34-1.32,10.31-5.07,9.78-20.58-.64-18.81-20.84-17.84-20.84-17.84h-30.84v1.39c7.07,3.16,6.3,5.95,6.65,18.34v42.36c-.23,8.52-.47,12.65-3.2,15.19-3.02-2.15-4.48-5.43-6.38-10.72l-27.51-66.75c-.91-1.93-3.04-1.93-3.58,0,0,0-18.38,51.64-25.09,70.44-1.21-1.56-2.43-3.13-3.65-4.7-17.36-22.34-18.06-22.52-17.89-24.01,.08-.7,1.8-1.85,4.05-3.13,2.34-1.32,10.31-5.07,9.78-20.58-.64-18.81-20.84-17.84-20.84-17.84h-30.84v1.39c7.07,3.16,6.3,5.95,6.65,18.34v42.36c-.27,9.52-.53,13.56-4.28,16.02-3.24-4.03-6.52-8.29-9.84-12.56-17.36-22.34-18.06-22.52-17.89-24.01,.08-.7,1.8-1.85,4.05-3.13,2.34-1.32,10.31-5.07,9.78-20.58-.64-18.81-20.84-17.84-20.84-17.84h-30.84v1.39c7.07,3.16,6.31,5.95,6.65,18.34v42.36c-.35,12.39-.68,15.5-8.71,17.93v1.81h27.57v-1.81c-5.83-1.2-8.7-5.05-8.7-17.93v-16.45s.26-1.37,1.77-1.37h7.74c1.14,0,2.5,.48,4.16,2.97,1.66,2.5,13.68,18.84,30.15,38.57,22.56,27.03,47.3,23.7,49.27,23.6,1.98-.1,1.98-1.88,.73-1.98-5.4-.41-11.85-1.87-22.56-7.69-6.49-3.53-12.92-10.1-19.46-17.91h20.1v-1.81c-5.83-1.2-8.7-5.05-8.7-17.93v-16.45s.26-1.37,1.77-1.37h7.74c1.14,0,2.5,.48,4.16,2.97,1.66,2.5,13.68,18.84,30.15,38.57,22.55,27.03,47.3,23.7,49.27,23.6,1.97-.1,1.97-1.88,.73-1.98-5.4-.41-11.85-1.87-22.56-7.69-8.38-4.56-16.65-14.16-25.17-24.97,2.83-7.36,7.41-19.2,9.17-23.3h26.25c2.92,8.1,6.92,15.69,8.97,21.77,1.26,3.76-.56,5.93-4.48,6.85v1.74h41.2v-1.81c-5.83-1.2-8.7-5.05-8.7-17.93v-16.45s.26-1.37,1.77-1.37h7.74c1.14,0,2.5,.48,4.16,2.97,1.66,2.5,13.68,18.84,30.15,38.57,22.56,27.03,47.3,23.7,49.27,23.6,1.97-.1,1.97-1.88,.73-1.98"/></g><text class="cls-2" transform="translate(550.9 305.63)"><tspan x="0" y="0">Luxury</tspan></text><text class="cls-2" transform="translate(550.9 402.06)"><tspan x="0" y="0">Box</tspan></text></svg>